<svg xmlns="http://www.w3.org/2000/svg" width="60.777" height="50" viewBox="0 0 60.777 50"><path d="M0,14.865q.286-.469.568-.93Q7.834,2.058,15.1-9.818a.4.4,0,0,1,.389-.223q14.927.007,29.852,0h.251l15.188,24.9L45.587,39.954h-.263q-14.916,0-29.829,0a.4.4,0,0,1-.392-.218Q7.863,27.809.618,15.879C.412,15.544.208,15.207,0,14.865m3.254,0c.045.079.087.154.129.226q.841,1.384,1.679,2.766,5.808,9.558,11.606,19.116a.433.433,0,0,0,.429.243q13.32-.011,26.635,0a.416.416,0,0,0,.414-.226c1.076-1.8,2.165-3.587,3.249-5.378Q52.4,23.339,57.411,15.066c.04-.064.077-.134.112-.2-.037-.067-.067-.122-.1-.174Q50.783,3.807,44.144-7.082a.4.4,0,0,0-.392-.218q-13.342.007-26.684,0a.4.4,0,0,0-.392.221Q10.418,3.156,4.155,13.386c-.3.491-.6.982-.9,1.478" transform="translate(0 10.041)"/><path d="M5.934,4.7c.107.027.213.047.317.082a11.2,11.2,0,0,1,1.069.389,3.025,3.025,0,0,1,1.826,2.57A5.062,5.062,0,0,1,8.96,9.771a3.915,3.915,0,0,1-2.277,2.451,7.656,7.656,0,0,1-2.106.568,13.68,13.68,0,0,1-1.831.1q-3.215-.007-6.432,0h-.278c-.052-.186-.062-15.78-.012-16.051.067,0,.136-.012.2-.012,2.478,0,4.956-.007,7.434,0a6.982,6.982,0,0,1,2.7.508A3.668,3.668,0,0,1,8.749,1.094,4.537,4.537,0,0,1,8.573,2.23,3.363,3.363,0,0,1,6.812,4.267c-.231.119-.476.213-.714.317-.057.025-.114.05-.174.072a.288.288,0,0,1,.01.045M.338,9.858H1a12.79,12.79,0,0,0,1.9-.079,3.286,3.286,0,0,0,1.109-.337,1.5,1.5,0,0,0,.67-.677,1.741,1.741,0,0,0-1-2.428A4.118,4.118,0,0,0,2.372,6.1c-.618-.017-1.235-.015-1.855-.02a1.464,1.464,0,0,0-.179.022Zm0-6.675a15.846,15.846,0,0,0,2.235-.077,3.237,3.237,0,0,0,1.059-.332,1.416,1.416,0,0,0,.779-1.466A1.339,1.339,0,0,0,3.384.065a3.857,3.857,0,0,0-1.1-.179c-.6-.015-1.205-.01-1.808-.012A1.006,1.006,0,0,0,.338-.1Z" transform="translate(16.669 16.659)"/><path d="M4.536,6.04c-.6,1.151-1.126,2.282-1.6,3.433s-.925,2.3-1.394,3.468h-4.6V.124c.131.146.228.255.325.362A2.567,2.567,0,0,0-.762,1.37,2.566,2.566,0,0,0,1.272.4c.109-.129.213-.263.322-.394a.331.331,0,0,0,.045.017v3.6a.3.3,0,0,0,.045.012c.045-.077.094-.154.136-.233a16.166,16.166,0,0,1,4.4-5.2,11.093,11.093,0,0,1,3.825-1.96,8.688,8.688,0,0,1,7.315,1.23,7.069,7.069,0,0,1,3.113,4.457,11.648,11.648,0,0,1-.052,5.71,6.919,6.919,0,0,1-2.108,3.512,7.031,7.031,0,0,1-3.175,1.585,10.841,10.841,0,0,1-5.3-.079A6.711,6.711,0,0,1,4.893,7.771c-.136-.466-.2-.95-.3-1.426-.017-.082-.032-.166-.057-.305M16.32,4.42c-.03-.29-.064-.838-.154-1.379A5.024,5.024,0,0,0,15.36.948,3.064,3.064,0,0,0,13.6-.3a3.71,3.71,0,0,0-1.084-.117A3.132,3.132,0,0,0,9.747,1.2a5.121,5.121,0,0,0-.575,1.491A9.259,9.259,0,0,0,9.04,5.966a5.945,5.945,0,0,0,.645,2.081,3.169,3.169,0,0,0,2.793,1.788,3.133,3.133,0,0,0,2.639-1.1A4.063,4.063,0,0,0,15.8,7.6,8.307,8.307,0,0,0,16.32,4.42" transform="translate(29.997 16.815)"/><path d="M2.6,1.285A2.174,2.174,0,0,1,.416,3.44,2.173,2.173,0,0,1-1.757,1.278,2.174,2.174,0,0,1,.413-.868,2.176,2.176,0,0,1,2.6,1.285" transform="translate(28.793 14.168)"/><path d="M0,.778A4.892,4.892,0,0,1,.131.158a.943.943,0,0,1,.925-.682.948.948,0,0,1,.957.637,2.25,2.25,0,0,1-.022,1.721.918.918,0,0,1-.873.585.944.944,0,0,1-.925-.541A2.314,2.314,0,0,1,0,.778m1.786.241a2,2,0,0,0-.2-.94A.563.563,0,0,0,.623.021a1.1,1.1,0,0,0-.164.36,2.255,2.255,0,0,0-.032,1,1.341,1.341,0,0,0,.2.5.546.546,0,0,0,.878.035.913.913,0,0,0,.184-.35c.055-.2.074-.417.1-.551" transform="translate(20.416 38.33)"/><path d="M.064,1.754c.012-.134.02-.228.03-.337A1.512,1.512,0,0,0,.3,1.5a2.35,2.35,0,0,0,.489.06.452.452,0,0,0,.451-.409A1.167,1.167,0,0,0,1.234.7C1.2.732,1.17.762,1.14.792A.632.632,0,0,1,.118.635,1.571,1.571,0,0,1-.026-.327,1.621,1.621,0,0,1,.1-.8a.648.648,0,0,1,1.049-.2.754.754,0,0,0,.1.087l.037-.238h.315v.337c0,.58,0,1.158,0,1.739a.858.858,0,0,1-1.114.92c-.139-.022-.273-.062-.429-.1M.3-.1A4.744,4.744,0,0,0,.394.414.391.391,0,0,0,.786.7.4.4,0,0,0,1.172.41a1.63,1.63,0,0,0,0-1.014A.389.389,0,0,0,.793-.9a.39.39,0,0,0-.4.3A4.025,4.025,0,0,0,.3-.1" transform="translate(44.415 39.767)"/><path d="M1.17.277C1.038.237.934.2.827.173A.9.9,0,0,0-.361.9,1.656,1.656,0,0,0-.272,1.911a.84.84,0,0,0,1.156.444V1.462c-.154-.01-.3-.017-.459-.025v-.28h.816V2.6a1.683,1.683,0,0,1-1.158.089,1.121,1.121,0,0,1-.752-.732A1.931,1.931,0,0,1-.681.646,1.2,1.2,0,0,1,.492-.187,2.53,2.53,0,0,1,.964-.14c.221.045.236.072.226.305,0,.03-.01.06-.02.112" transform="translate(17.407 37.993)"/><path d="M.769,0h.36V3.073h-.3c-.012-.064-.027-.129-.042-.2a.276.276,0,0,0-.064.022,1.59,1.59,0,0,1-.315.2.611.611,0,0,1-.761-.322,1.647,1.647,0,0,1,0-1.458A.633.633,0,0,1,.67,1.131c.025.02.047.04.1.087ZM.8,2.029a4.478,4.478,0,0,0-.084-.484.391.391,0,0,0-.4-.308.39.39,0,0,0-.4.308,1.707,1.707,0,0,0,0,.972A.405.405,0,0,0,.33,2.84.408.408,0,0,0,.72,2.518,4.46,4.46,0,0,0,.8,2.029" transform="translate(36.823 37.629)"/><path d="M.24,1.057C.4.868.58.69.728.489A.453.453,0,0,1,1.274.3,2.3,2.3,0,0,1,.9.764c-.124.151-.258.3-.407.461.293.375.58.744.9,1.156a1.89,1.89,0,0,1-.36,0,.349.349,0,0,1-.174-.134C.647,1.967.446,1.687.22,1.409c-.052.313-.02.63-.042.96h-.34V-.7L.183-.714c0,.6,0,1.173,0,1.749l.052.022" transform="translate(23.203 38.328)"/><path d="M0,0H.4c.221.761.442,1.518.66,2.275a.241.241,0,0,1,.042,0Q1.45,1.141,1.8,0h.37C1.86.965,1.56,1.91,1.26,2.86H.878C.588,1.915.3.972,0,0" transform="translate(27.771 37.843)"/><path d="M.881,1.833H.556c0-.062-.017-.122-.017-.181,0-.36,0-.722,0-1.081a2.041,2.041,0,0,0,0-.213C.5.149.407.037.233.012A.4.4,0,0,0-.2.27,1.308,1.308,0,0,0-.265.662c-.01.305,0,.61,0,.918v.248H-.6V-1.238h.313V-.025C-.208-.08-.166-.1-.129-.137a.627.627,0,0,1,.667-.1.5.5,0,0,1,.34.5c.01.516,0,1.034,0,1.578" transform="translate(33.013 33.6)"/><path d="M.778.724v.313H-.144c-.02.35-.007.675-.007,1.027H.88c0,.109.007.191.012.27a6.447,6.447,0,0,1-1.377.025C-.529,2.192-.544-.149-.5-.489H.823v.308H-.139V.724Z" transform="translate(15.329 38.338)"/><path d="M.206,1.268H-.139V-.813h.3c.01.064.022.131.035.206.02,0,.05,0,.06-.017A.543.543,0,0,1,.6-.845a.584.584,0,0,1,.747.578c.02.494,0,.987,0,1.481,0,.012-.012.027-.027.052H1.007c0-.074-.012-.141-.012-.211V-.026c0-.062,0-.127,0-.189A.34.34,0,0,0,.714-.552a.39.39,0,0,0-.422.2A.918.918,0,0,0,.211.006c-.012.335,0,.672,0,1.01Z" transform="translate(42.618 39.438)"/><path d="M0,.651A1.906,1.906,0,0,1,.156,0,.749.749,0,0,1,.9-.44a.732.732,0,0,1,.719.449,1.553,1.553,0,0,1,0,1.258.737.737,0,0,1-.739.456.722.722,0,0,1-.732-.461A4.224,4.224,0,0,1,0,.651M.387.639a4.319,4.319,0,0,0,.084.486.419.419,0,0,0,.422.317.426.426,0,0,0,.417-.327,1.611,1.611,0,0,0,0-.95A.421.421,0,0,0,.9-.16.409.409,0,0,0,.474.153,3.9,3.9,0,0,0,.387.639" transform="translate(33.036 39.026)"/><path d="M1.052.654a4.449,4.449,0,0,1-.171.63.717.717,0,0,1-.722.439.729.729,0,0,1-.727-.439,1.528,1.528,0,0,1,0-1.3A.731.731,0,0,1,.171-.442a.746.746,0,0,1,.709.427,2.065,2.065,0,0,1,.171.67M-.347.637a4.239,4.239,0,0,0,.1.506.41.41,0,0,0,.409.3.411.411,0,0,0,.409-.3,1.535,1.535,0,0,0,0-.995.409.409,0,0,0-.4-.308A.4.4,0,0,0-.255.148,4.364,4.364,0,0,0-.347.637" transform="translate(25.329 39.026)"/><path d="M.719.509c0-.1,0-.166,0-.228A.341.341,0,0,0,.387-.054.947.947,0,0,0-.251.127c-.015-.107-.025-.2-.037-.3A1.057,1.057,0,0,1,.59-.3a.57.57,0,0,1,.464.578c.012.352,0,.707.007,1.059v.437H.776c-.012-.06-.025-.119-.04-.184-.022,0-.052,0-.064.015a.686.686,0,0,1-.531.218.566.566,0,0,1-.6-.4A.665.665,0,0,1-.2.67,1.166,1.166,0,0,1,.364.509c.109,0,.218,0,.355,0M.709.774A.887.887,0,0,0,.064.858.387.387,0,0,0-.1,1.347a.344.344,0,0,0,.429.2A.45.45,0,0,0,.7,1.171a2.111,2.111,0,0,0,0-.4" transform="translate(29.212 33.654)"/><path d="M.86,1.045c.007.1.015.189.022.29A1.276,1.276,0,0,1,0,1.415.69.69,0,0,1-.455.993a1.594,1.594,0,0,1,0-1.24A.725.725,0,0,1,.326-.7.674.674,0,0,1,.944-.14a5.266,5.266,0,0,1,.074.6C.6.5.217.462-.18.485a.606.606,0,0,0,.2.6c.179.149.427.134.838-.04M.634.194c0-.442-.139-.645-.422-.63-.263.012-.414.251-.389.63Z" transform="translate(30.545 39.291)"/><path d="M.68,0h.342V2.084H.734C.719,2.022.7,1.952.672,1.858a.63.63,0,0,1-.593.275.512.512,0,0,1-.523-.459C-.471,1.121-.454.568-.454,0h.305A1.527,1.527,0,0,1-.126.179c0,.352,0,.707,0,1.059a1.755,1.755,0,0,0,.02.28c.037.2.119.283.278.308a.393.393,0,0,0,.434-.218,1.079,1.079,0,0,0,.069-.342C.685.928.68.59.68.253Z" transform="translate(40.923 38.617)"/><path d="M.206,1.263H-.139V-.815H.146c.017.062.04.134.067.228A.658.658,0,0,1,.771-.852a.555.555,0,0,1,.575.513,1.5,1.5,0,0,1,.01.211v1.2c0,.062,0,.122-.01.2H1.024c0-.087-.012-.164-.012-.241,0-.335,0-.672,0-1.01a1.757,1.757,0,0,0-.025-.28.316.316,0,0,0-.27-.288.388.388,0,0,0-.407.184,1.009,1.009,0,0,0-.1.38C.2.346.206.683.206,1.02Z" transform="translate(38.582 39.437)"/><path d="M.194,1.268H-.131V-.811h.3c.012.072.022.136.04.236a.642.642,0,0,1,.57-.28.545.545,0,0,1,.563.5,3.405,3.405,0,0,1,.017.422c0,.392,0,.781,0,1.193H1.03a1.286,1.286,0,0,1-.017-.174c0-.36,0-.719,0-1.081A1.833,1.833,0,0,0,1-.23.337.337,0,0,0,.7-.553a.373.373,0,0,0-.412.213A1.205,1.205,0,0,0,.209.07C.2.422.2.774.2,1.127c0,.04,0,.077-.01.141" transform="translate(26.964 34.167)"/><path d="M.8.054v.28C.688.309.591.282.489.27a.524.524,0,0,0-.6.355,1.192,1.192,0,0,0-.017.809.538.538,0,0,0,.667.382C.626,1.8.708,1.778.819,1.75c.007.1.015.189.022.27A.91.91,0,0,1-.525,1.329,1.92,1.92,0,0,1-.5.676.9.9,0,0,1,.8.054" transform="translate(31.219 33.346)"/><path d="M.548.194A.417.417,0,0,0,.094.387,1.262,1.262,0,0,0-.02.833c-.017.3,0,.6,0,.9v.248H-.37V-.1h.293c.01.069.022.139.037.231.169-.144.33-.3.588-.253Z" transform="translate(35.57 38.723)"/><path d="M.181.031C.191.108.2.177.213.264a1.543,1.543,0,0,1,.26-.2A1.592,1.592,0,0,1,.8-.021V.316C.749.321.7.324.659.329A.377.377,0,0,0,.3.6a1.535,1.535,0,0,0-.074.437c-.007.35,0,.7,0,1.072h-.35V.031Z" transform="translate(32.064 38.59)"/><path d="M7.727-3.91H8.866v-.354H7.727Z" transform="translate(11.356 43.623)"/><path d="M10.753-3.91h1.126v-.354H10.753Z" transform="translate(15.804 43.623)"/><path d="M8.472-4.675h.4V-5.18h-.4Z" transform="translate(12.51 42.244)"/><path d="M8.743-4.688h.4V-5.18h-.4Z" transform="translate(12.911 42.246)"/></svg>