<svg xmlns="http://www.w3.org/2000/svg" width="828.332" height="539.074" viewBox="0 0 828.332 539.074"><defs><style>.a{fill:#101820;}</style></defs><g transform="translate(0 0)"><path class="a" d="M817.988,309.223c3.833-7.1,6.267-19.071,7.131-21.676q7.1-21.505,14.925-42.7c5.74-15.188,13.6-30.493,16.061-46.937a40.055,40.055,0,0,0-1.221-21.406c-4.2-10.327-16.057-19.253-23.255-26.731a81.3,81.3,0,0,0-17.566-15.9c-7.174-3.647-16.832-4.934-24.608-6.066-17.806-2.594-37.2-1.106-55.1-.324-13.183.576-25.3,3.983-34.865,14.553q-6.625,7.958-12.919,16.238c-4.419,5.921-6.9,12.583-10.991,18.551-2.447,3.572-8.155,5.511-8.758,10.215-.118-8.042-2.727-14.9-5.832-22.193-9.071-21.288-23.972-50.908-47.891-52.076-13.519-.661-25.26,6.153-37.533,11.5-10.721,4.67-20.522,10.55-30.52,16.762-6.609,4.108-13.3,8.113-20.034,11.958a18.808,18.808,0,0,0-6.635,4.719c-4.387,2.882-9.147,4.824-13.526,7.728-.406.269-.829.539-1.26.81-13.543-36.971-58.878-64.146-112.733-64.146-53.335,0-98.321,26.653-112.336,63.079a151.866,151.866,0,0,0-43.482-6.239c-64.542,0-116.863,39.031-116.863,87.179,0,24.516,13.572,46.665,35.411,62.5-13.055,3.8-25.527,10.291-37.03,18.23-9.076,6.265-22.293,14.334-27.957,25.1-3.844,7.307-5.25,18.817-6.521,27.112-1.068,6.968-2.651,17.562-.481,24.471,3.731,11.875,20.207,23.695,30.014,28.555,16.126,7.992,36.067,7.239,53.213,2.343A116.836,116.836,0,0,0,280.313,533.15c1.624,0,3.239-.042,4.847-.108a81.572,81.572,0,0,0-2.743,20.949c0,48.145,41.952,87.176,93.7,87.176,36.467,0,68.045-19.395,83.53-47.689a114.789,114.789,0,0,0,28.12,21.936c19.446,10.589,47.952,16.366,69.224,9.97,11.352-3.413,18.067-9.367,25.777-18.425,4.472-5.255,15.788-20.56,15.849-29.264a176.366,176.366,0,0,0,20.269,10.323c17.595,7.155,38.283,13.745,56.989,16.173,13.487,1.751,21.921-3.874,33.354-12.1l19.237-16.057a195.214,195.214,0,0,1,22.423-16.8c10.313-9.154,16.987-25.6,17.147-40.187.08-7.258-2.227-12.53-3.816-19.019a138.616,138.616,0,0,0,27.765,2.791c64.542,0,116.863-43.882,116.863-98.013C908.849,358.163,870.014,319.137,817.988,309.223Z" transform="translate(-80.517 -102.093)"/></g></svg>