<svg xmlns="http://www.w3.org/2000/svg" width="142.587" height="128.96" viewBox="0 0 142.587 128.96"><defs><style>.a{fill:#71cc98;}</style></defs><path class="a" d="M7.862,12.619c-.066-.221-.133-.442-.2-.662-8.969-1.447-17.423.5-25.641,4.076a1.355,1.355,0,0,0,.693.281,35.037,35.037,0,0,0,12.559-.4c3.466-.682,7.019-.974,10.354-2.245.767-.293,1.49-.7,2.233-1.047M21.148,41.247l.477-.061a36.778,36.778,0,0,0-.065-4.443c-.489-3.738-1.011-7.477-1.738-11.173a65.936,65.936,0,0,0-2.071-7.356,16.615,16.615,0,0,0-1.492-3.095c-.243-.429-.78-1.058-1.08-1a2.144,2.144,0,0,0-1.32,1.035A7.945,7.945,0,0,0,13,17.728c-.272,2.03-.828,4.089-.139,6.125.545,1.608,1.21,3.176,1.855,4.748.483,1.181,1.04,2.333,1.525,3.513a58.2,58.2,0,0,0,4.908,9.132m-58.876-64.82c1.094,1.719,2.029,3.2,2.979,4.68A74.992,74.992,0,0,0-21.118-3.2a18.9,18.9,0,0,0,2.792,2.063c2.316,1.377,4.65,2.731,7.039,3.976A26.982,26.982,0,0,0-2.519,5.866c2.177.3,4.35.633,6.523.968.6.092,1.184.246,1.995.418C4.352,5.368,2.967,3.673,1.467,2.087-1.546-1.1-4.614-4.231-7.675-7.373a30.116,30.116,0,0,0-6.3-5.518c-2.587-1.489-5.112-3.089-7.682-4.607a44.686,44.686,0,0,0-14.321-5.92c-.509-.1-1.037-.094-1.752-.155M89.769-1.584c-.016-.174-.033-.348-.051-.522-.984-.233-1.969-.468-2.954-.7a27.7,27.7,0,0,0-5.59-.678c-2.624-.063-5.25-.259-7.869-.185-2.81.08-5.617.35-8.415.638-3.708.382-7.454.5-11.083,1.5-1.649.455-3.321.846-5,1.154A68.007,68.007,0,0,0,35.5,3.6,73.73,73.73,0,0,0,24.83,9.219c-.247.152-.381.485-.737.961,2.721-.042,5.035.708,7.479.884a66.126,66.126,0,0,0,10.4-.167c3.894-.331,7.773-.923,11.635-1.547A131.955,131.955,0,0,0,73.7,4.943C77.416,3.729,81.073,2.329,84.711.9c1.742-.686,3.377-1.645,5.058-2.48M21.534,14.876l-.293.277a31.621,31.621,0,0,0,1.642,3.019c1.757,2.555,3.522,5.11,5.423,7.558a49.5,49.5,0,0,0,5.158,5.942c2.847,2.659,5.9,5.1,8.943,7.544,2.425,1.946,4.871,3.893,7.469,5.593a44.03,44.03,0,0,0,13.971,5.833c2.9.7,5.876,1.117,8.818,1.658.235.043.473.073.82.126a10.451,10.451,0,0,0-.423-1.082c-1.689-2.88-3.374-5.761-5.092-8.623a7.582,7.582,0,0,0-1.254-1.581c-3-2.855-6-5.72-9.07-8.5a31.966,31.966,0,0,0-3.8-2.786c-2.787-1.853-5.528-3.8-8.444-5.434-2.752-1.54-5.7-2.726-8.573-4.056-1.221-.565-2.432-1.161-3.689-1.636q-3.685-1.393-7.42-2.654c-1.374-.464-2.79-.805-4.187-1.2M12.072,6.2a3.369,3.369,0,0,0,.255-.813c.029-4.861.615-9.694.481-14.574C12.7-13.28,12-17.289,11.6-21.34a21.658,21.658,0,0,0-1.177-4.395c-.949-2.955-1.868-5.922-2.966-8.822-1.121-2.957-2.546-5.8-3.647-8.763a40.768,40.768,0,0,0-4.836-9.341,25.726,25.726,0,0,0-3-3.548c-.122,1.692-.227,3.085-.323,4.478q-.453,6.558-.9,13.117a10.944,10.944,0,0,0,.006,1.81c.4,3.984-.016,8.018.861,11.982.416,1.879.332,3.867.71,5.758A41.378,41.378,0,0,0,0-8.931C.864-7.187,2.018-5.59,2.951-3.879A36.531,36.531,0,0,0,9.033,3.816,27.462,27.462,0,0,0,12.072,6.2m5.437,1.224c1.38-1.057,2.612-1.85,3.665-2.836,3.906-3.654,8.11-6.845,13.17-8.737a6.4,6.4,0,0,0,3.117-2.68c.339-.508.639-1.041.995-1.536,2.178-3.021,4.6-5.893,6.492-9.083,2.27-3.829,4.116-7.911,6.084-11.914.533-1.084.788-2.3,1.262-3.418.712-1.675,1.657-3.265,2.233-4.982,1.722-5.131,3.347-10.3,4.942-15.47.914-2.97,1.714-5.975,2.519-8.976a13.656,13.656,0,0,0,.2-2.16c-.583.281-.917.409-1.217.591-2.873,1.739-5.795,3.408-8.594,5.262-2.07,1.37-4.009,2.944-5.946,4.5-1.044.842-1.971,1.83-2.931,2.773-1.958,1.923-3.972,3.8-5.839,5.8-3.5,3.766-6.338,8.057-9.423,12.153A32.659,32.659,0,0,0,26.3-30.607c-3.527,5.834-5.888,12.207-8.443,18.488a1.609,1.609,0,0,0-.189,1.025,1.681,1.681,0,0,1-.443,1.825,1.76,1.76,0,0,0-.361.978c0,2.731.031,5.463.066,8.193.027,2.062.053,4.123.131,6.182a5.431,5.431,0,0,0,.454,1.342M8.75,22.466c-2.015,2.652-3.836,5.166-5.783,7.578C.33,33.313-1.908,36.913-5.05,39.765c-.4.367-.846.693-1.278,1.045-.069.547-.143,1.128-.241,1.89-2.036,0-3.963.013-5.89-.014a1.257,1.257,0,0,1-.625-.357,2.027,2.027,0,0,1-.49-2.91c.572-.652.9-1.7,2.244-1.775.864-.049,1.724-1.037,2.493-1.708,1.879-1.642,3.781-3.271,5.53-5.046A57.934,57.934,0,0,0,.849,26.03c1.81-2.3,3.708-4.556,4.8-7.33.112-.283.238-.562.345-.847.013-.036-.048-.1-.147-.29-.339.055-.732.1-1.115.183C2.1,18.338-.5,19.084-3.149,19.511c-5.624.907-11.276,1.477-16.953.33-.776-.157-1.581-.169-2.365-.3-1.008-.163-2.085-.167-2.612-1.362-.134-.3-.675-.438-1.041-.63-.914-.48-1.066-.883-.5-1.732a4.472,4.472,0,0,1,1.04-1c1.981-1.515,3.916-3.1,5.987-4.477a25.809,25.809,0,0,1,3.8-1.751c.111-.049.213-.118.474-.264-.37-.266-.664-.516-.994-.706a35.67,35.67,0,0,1-8.549-6.529,53.71,53.71,0,0,1-7.262-9.12c-1.248-2.147-2.758-4.143-4.142-6.21-.642-.959-1.22-1.965-1.917-2.881a17.964,17.964,0,0,0-1.744-1.8c-.126-.125-.368-.167-.439-.307-1.036-2.044-2.111-4.071-3.05-6.159-.493-1.1-.7-2.314-1.111-3.45a1.149,1.149,0,0,1,.512-1.569c.561-.311,1.149-.643,1.855-.161a5.211,5.211,0,0,0,1.623.705c3.018.772,6.056,1.466,9.066,2.266,1.173.311,2.291.824,3.433,1.251a43.512,43.512,0,0,1,11.857,6.507,6.246,6.246,0,0,1,1.2,1.132c1.856,2.521,4.649,3.727,7.239,5.22a2.618,2.618,0,0,0,.634.141c.041-.261.16-.505.094-.681A42.468,42.468,0,0,1-9.22-25.472c-.18-2.187-.614-4.356-.741-6.544-.171-2.919-.24-5.852-.2-8.777.054-3.714.187-7.432.436-11.137a50.41,50.41,0,0,1,.911-6.13c.288-1.488.759-2.942,1.17-4.4.129-.457.33-.894.517-1.389a4.769,4.769,0,0,1,3.975,1.826A48.284,48.284,0,0,1,4.093-51.1C6.046-46.7,9-42.8,10.42-38.147c1.07,3.492,2.23,6.957,3.246,10.464.875,3.018,1.6,6.078,2.5,9.517.582-1.338,1.016-2.346,1.457-3.351A62.686,62.686,0,0,1,24.158-33.6c1.516-2.067,2.678-4.4,4.217-6.444A89.564,89.564,0,0,1,39.028-52.321c2.017-1.857,4.193-3.546,6.36-5.23,3.081-2.394,6.226-4.708,9.335-7.068.926-.7,1.8-1.471,2.733-2.167,2.146-1.605,4.289-3.217,6.481-4.76,1.231-.866,2.589-.192,3.86-.015.641.089.871.853.753,1.507-.588,3.239-1.035,6.518-1.862,9.7-.981,3.773-2.273,7.466-3.478,11.177-.753,2.321-1.738,4.576-2.359,6.929-1.353,5.12-3.807,9.785-5.815,14.63C52.932-22.542,50.7-17.51,48.5-12.473a19.635,19.635,0,0,1-1.235,2.02c-.427.72-.829,1.456-1.377,2.426,1.271-.128,2.335-.21,3.392-.346,4.067-.522,8.13-1.077,12.2-1.587a51.591,51.591,0,0,1,11.33.156c2.128.2,4.269.25,6.4.467A59.716,59.716,0,0,1,93.3-6.241c.67.239,1.43.237,2.083.508A8.6,8.6,0,0,1,97.716-4.4,1.565,1.565,0,0,1,97.8-2.935,4.2,4.2,0,0,1,95.94-1.011C94.634-.381,93.5.6,92.218,1.29A143.441,143.441,0,0,1,77.173,8.036a64.71,64.71,0,0,1-11.265,3.285c-2.457.5-4.855,1.328-7.326,1.71-2.826.436-5.7.562-8.558.783-3.035.235-6.075.427-9.114.632a13.464,13.464,0,0,0-3.5.551l1.17.662q4.035,2.285,8.072,4.567c2.911,1.637,5.9,3.148,8.728,4.918a53.361,53.361,0,0,1,9.209,7.231,32.551,32.551,0,0,1,4.459,5.886c1.631,2.566,3.477,5,5.243,7.477,2.019,2.838,4.058,5.664,6.079,8.5.6.845,1.018,1.714.049,2.606a32.544,32.544,0,0,1-9.8-.611c-.582-.12-1.21-.018-1.792-.136-2.029-.416-4.087-.753-6.059-1.362-3.152-.971-6.286-2.033-9.346-3.259a29.2,29.2,0,0,1-4.976-2.737c-2.92-1.9-5.856-3.8-8.613-5.925a65.942,65.942,0,0,1-9.771-8.988c-1.348-1.558-2.633-3.172-4.133-4.986a31.409,31.409,0,0,1,.494,3.415c.092,2.8.168,5.6.076,8.394a21.882,21.882,0,0,1-.767,3.729c-.146.684-.59,1.4.316,1.962a1.586,1.586,0,0,1-.225,1.051c-1.4.2-1.316,1.382-1.638,2.3a1.988,1.988,0,0,1-.168.3c-2.155.558-2.155.558-3.713.028-1.022-1.4-1.812-2.6-2.716-3.71a36.6,36.6,0,0,1-5.231-9.8A94.7,94.7,0,0,1,9.233,25.8a28.407,28.407,0,0,1-.483-3.334" transform="translate(44.645 71.979)"/></svg>