<svg xmlns="http://www.w3.org/2000/svg" width="44.109" height="49.999" viewBox="0 0 44.109 49.999"><path d="M19.228,32.247c.273-.116.547-.236.816-.365a14.217,14.217,0,0,1,2.511-.812c1.123-.278,2.262-.518,3.356-.907.7-.253,1.388-.555,2.076-.841,1.284-.539,2.564-1.073,3.811-1.686A15.5,15.5,0,0,0,34.114,26.3a5.407,5.407,0,0,0,1.346-1.674c.505-.8,1.094-1.516,1.665-2.27a4.372,4.372,0,0,0,.621-1.056,3.031,3.031,0,0,0,.178-.63c.029-.17.153-.783-.041-.895a7.753,7.753,0,0,1-1.491-.754,5.84,5.84,0,0,0-1.74-.684c-1.392-.319-2.817-.452-4.209-.771a.064.064,0,0,1-.025-.1q1.119-.994,2.2-2.022a5.738,5.738,0,0,0,.887-1.065A16.912,16.912,0,0,0,35.091,11.5a8.747,8.747,0,0,0,.613-3,3.758,3.758,0,0,0-.82-2.838,2.438,2.438,0,0,0-.663-.46,1.593,1.593,0,0,0-.974-.07,5.41,5.41,0,0,1-1.943-.17,7.777,7.777,0,0,0-2.457-.186,12.563,12.563,0,0,0-2.37.53,10.788,10.788,0,0,0-1.707.626,8.658,8.658,0,0,1-1.23.563.941.941,0,0,1-.969-.207,1.109,1.109,0,0,1-.22-.974c.066-.468.224-.916.3-1.38a11.1,11.1,0,0,0,.112-2.54,8.838,8.838,0,0,0-1.409-4.383c-.385-.568-.816-1.1-1.214-1.657-.278-.381-.551-.746-.866-1.1-.713-.8-1.591-1.458-2.241-2.32a1.632,1.632,0,0,1-.356-.667c-.041-.195-.1-.389-.141-.584a1.088,1.088,0,0,0-.195-.572,1.433,1.433,0,0,0-.742-.336,2.7,2.7,0,0,0-1.96.663c-.568.381-1.127.762-1.665,1.177A19.84,19.84,0,0,0,8.88-5.474,15.744,15.744,0,0,0,7.6-3.746c-.186.3-.365.6-.53.907-.116.211-.22.4-.282.551A18.329,18.329,0,0,0,6-.121a11.343,11.343,0,0,0-.348,2.212A6.674,6.674,0,0,0,5.83,4.419c.162.522.34,1.027.46,1.566A1.345,1.345,0,0,1,6.228,7c-.157.24-.435.182-.675.116a19.68,19.68,0,0,0-4.184-.758C.325,6.3-1.44,6.267-1.979,7.4a3.915,3.915,0,0,0,.269,2.73A12.734,12.734,0,0,0-1,11.959,13.292,13.292,0,0,0,.175,13.774c.311.414.621.829.961,1.218a12.583,12.583,0,0,1,.837,1.04c.112.17.365.493.269.721-.079.2-.41.186-.584.186a13.107,13.107,0,0,1-2.531-.377,7.566,7.566,0,0,0-2.386-.1,4.15,4.15,0,0,0-1.893.845,1.818,1.818,0,0,0-.94,1.744,5.9,5.9,0,0,0,.775,1.612,10.97,10.97,0,0,1,.771,1.8c.232.684.439,1.38.733,2.042A6.454,6.454,0,0,0-2.6,26.331a12.965,12.965,0,0,0,3.492,2.56,24.184,24.184,0,0,0,4.2,1.715,33.05,33.05,0,0,0,4.3.974,18.315,18.315,0,0,0,2.067.265c.555.029,1.11.029,1.657.1a1.973,1.973,0,0,1,1.218.534,1.928,1.928,0,0,1,.476,1.226,9.943,9.943,0,0,1-.07,1.529c-.033.443-.075.882-.128,1.326a11.979,11.979,0,0,0-.12,1.587,1.769,1.769,0,0,0,.4,1.338,1.741,1.741,0,0,0,1.641.091,1.734,1.734,0,0,0,1.152-.916,6.292,6.292,0,0,0,.265-1.57,10.594,10.594,0,0,0-.108-1.951,5.327,5.327,0,0,1,.054-1.682,1.816,1.816,0,0,1,.75-1.019.052.052,0,0,1,.075.012.551.551,0,0,1,.116-.041c.137-.054.269-.108.4-.166M20.26,13.459c1.251-.816,2.482-1.678,3.766-2.444a18.482,18.482,0,0,1,4.089-1.781A10.58,10.58,0,0,1,29.3,8.926a2.693,2.693,0,0,1,.406-.075,2.914,2.914,0,0,1,1.177.29,3.932,3.932,0,0,1,1.085.642c.174.149.4.381.36.634a2.45,2.45,0,0,1-.141.626,5.581,5.581,0,0,1-.427.916,9.6,9.6,0,0,1-1.367,1.562,13.279,13.279,0,0,1-3.55,2.3c-.829.4-1.653.812-2.5,1.172a6.968,6.968,0,0,1-2.883.791c-1.2-.1-2.738-.452-3.008-1.835-.228-1.168.965-1.943,1.806-2.486M14.39,24.777v.017a3.57,3.57,0,0,1-.414.87c-1.189,1.794-3.422,1.81-5.332,1.794A17.192,17.192,0,0,1,3.8,26.848,8.8,8.8,0,0,1-.235,24.33,7.8,7.8,0,0,1-1.523,22.4a3.52,3.52,0,0,1-.236-1.222c-.041-.576-.1-2.034.779-2.026a25.517,25.517,0,0,1,3.016.327c1,.128,1.972.414,2.95.63.994.22,2,.389,3,.613,1.881.423,3.729.978,5.6,1.446,1.1.273.907,1.761.808,2.606m.166-8.427c-.3.853-1.5,1.181-2.27,1.342a9.607,9.607,0,0,1-2.9.178,5.687,5.687,0,0,1-2.755-1.28A15.693,15.693,0,0,1,3.921,13.8c-.356-.456-.688-.924-1.056-1.367a2.993,2.993,0,0,1-.812-1.355.014.014,0,0,1,0-.008s0,0,0-.008A1.871,1.871,0,0,1,2.3,9.722a1.08,1.08,0,0,1,.866-.36,4.447,4.447,0,0,1,1.185.186c.65.166,1.3.327,1.931.555a12.914,12.914,0,0,1,1.935.882,8.062,8.062,0,0,1,1.6,1.23,8.294,8.294,0,0,0,1.616,1.3c.53.294,1.1.514,1.612.845A7.913,7.913,0,0,1,14.2,15.439a.88.88,0,0,1,.352.911m.891-6.906a3.22,3.22,0,0,1-1.119.17,5.811,5.811,0,0,1-2.109-.667,4.768,4.768,0,0,1-1.479-1.1,5.917,5.917,0,0,1-.928-1.525,8.954,8.954,0,0,1-.7-2.183A8.287,8.287,0,0,1,9.953-.631a14.618,14.618,0,0,1,1.371-2.316A6.019,6.019,0,0,1,12.9-4.621a2.9,2.9,0,0,1,1.926-.493,2.651,2.651,0,0,1,1.595.812,3.271,3.271,0,0,1,.365.6c.2.373.394.754.584,1.139.5,1.019.965,2.055,1.384,3.107a12.374,12.374,0,0,1,.874,2.8A5.66,5.66,0,0,1,18.7,6.78a6.037,6.037,0,0,1-3.252,2.664m2.726,19c-.182-.012-.249-.029-.24-.195.029-.485.05-.965.062-1.446.021-.642.041-1.284.054-1.926.017-.584-.046-1.168-.029-1.757a2.038,2.038,0,0,1,.34-1.2,2.841,2.841,0,0,1,1.359-.862,12.443,12.443,0,0,1,4.843-.24c1.69.1,3.447-.3,5.116.05a6.037,6.037,0,0,1,1.591.572,2.04,2.04,0,0,1,1.069,1.011c.124.381-.24.754-.464,1.019-.311.36-.655.692-1,1.019a10.126,10.126,0,0,1-.982.8,14.367,14.367,0,0,1-4.955,2.233,24.411,24.411,0,0,1-4.039.783,17.17,17.17,0,0,1-2.726.133" transform="translate(6.118 10.26)"/></svg>