<svg xmlns="http://www.w3.org/2000/svg" width="43.219" height="49.998" viewBox="0 0 43.219 49.998"><path d="M32.853,18.51c-.05-1.311-.175-2.613-.259-3.92a26.966,26.966,0,0,0-.76-3.937A9.669,9.669,0,0,0,31,9.009c-.355-.53-.71-1.06-1.077-1.582-.739-1.048-1.57-2.021-2.38-3.014a.171.171,0,0,1-.029-.071,19.39,19.39,0,0,0,.459-3.252,4.324,4.324,0,0,0-1.482-2.822,25.257,25.257,0,0,0-2.776-2.1c-.505-.3-.985-.66-1.52-.914a18.334,18.334,0,0,0-6.746-1.035A40.752,40.752,0,0,0,5.835-3.4a16.824,16.824,0,0,0-2.9,1.616A24.383,24.383,0,0,0,.178.576C-.716,1.419-1.584,2.288-2.406,3.2c-1.561,1.737-5.018,8.379-5.268,8.93a24.392,24.392,0,0,0-1.161,3.361c-.313,1.123-1.386,6.262-1.44,6.859a9.828,9.828,0,0,0-.046,1.854A10.509,10.509,0,0,0-9.987,26c.309,1.169.693,2.346,1.11,3.482a23.361,23.361,0,0,0,1.582,3.127c.28.509.513,1.048.806,1.549A7.542,7.542,0,0,0-5.475,35.5c.355.384,2.108,1.841,2.254,2.012A9.608,9.608,0,0,0-.7,39.438c.939.539,2.125,1.6,3.085,2.1a18.614,18.614,0,0,0,3.386,1.34c.568.167,2.684.751,3.16,1a2.31,2.31,0,0,0,.818.288,1.819,1.819,0,0,0,.877-.192c.5-.217.96-.534,1.482-.7.255-.083.5-.175.751-.259a1.738,1.738,0,0,0,.7-.351,5.342,5.342,0,0,1,1.148-.948,13.956,13.956,0,0,1,2.951-.964c2.284-.689,3.953-2.542,5.845-3.949a33.729,33.729,0,0,0,5.369-4.68,10.412,10.412,0,0,0,1.119-1.478,20.233,20.233,0,0,0,1.14-2.446c.054-.225.8-1.72,1.01-2.3a31.616,31.616,0,0,0,.706-5.448c.033-.643.033-1.29.008-1.933M12.514,8.838a9.435,9.435,0,0,0-1.732,4.918,12.4,12.4,0,0,0,.417,3.106c.221,1,.426,2,.651,2.989.459,2.029.994,4.066,1.282,6.128a20.577,20.577,0,0,1,.1,3c-.008.505.146,1.219.171,2.977a12.926,12.926,0,0,1-.722,4.033c-.125.33-1.027,2.355-2.083,2.484s-.7.142-1.056.129c-.534-.017-1.073-.038-1.607-.063-1.077-.046-2.15-.1-3.223-.15A4.4,4.4,0,0,1,2.365,37.7,12.308,12.308,0,0,1,.5,36.077,19.926,19.926,0,0,1-1.191,34.12,26.1,26.1,0,0,1-5.746,23.85,23.949,23.949,0,0,1-5.6,18.239a19.053,19.053,0,0,1,2.033-5.778A49.4,49.4,0,0,1-1,7.669C.232,5.786,5.734.906,10.51-.5s9.823-.559,10.6-.125A24.6,24.6,0,0,1,23.356.935c.038.067-5.586,3-6.993,4.033a16.288,16.288,0,0,0-3.849,3.87m15.976,11.7a22.035,22.035,0,0,1-.48,3.661,19.59,19.59,0,0,1-1.194,3.323c-.255.568-.518,1.144-.822,1.687a12.892,12.892,0,0,1-1.01,1.407c-.351.463-.7.931-1.081,1.365a13.622,13.622,0,0,1-1.19,1.115c-1.528,1.357-3,2.78-5.06,3.256h-.029a.127.127,0,0,1-.1-.029.143.143,0,0,1-.067-.134.025.025,0,0,1,0-.017s0-.008,0-.013a14.289,14.289,0,0,0,.346-2.021,29.887,29.887,0,0,0-.643-7.752c-.443-2.626-.873-5.243-1.194-7.886-.159-1.348-.3-2.7-.409-4.054a12.482,12.482,0,0,1,.079-3.7A4.992,4.992,0,0,1,17.281,8.04,12.3,12.3,0,0,1,20.25,6.12a4.306,4.306,0,0,1,2.972-.643,5.611,5.611,0,0,1,2.48,1.95A12.717,12.717,0,0,1,28.294,12.9a16.881,16.881,0,0,1,.417,3.574c.013,1.357-.109,2.709-.221,4.058" transform="translate(10.348 5.831)"/></svg>