<svg xmlns="http://www.w3.org/2000/svg" width="178.571" height="40.259" viewBox="0 0 178.571 40.259"><defs><style>.a{fill:#101820;}</style></defs><path d="M87.157,1.629h-6V29.015h6V15.895L98.323,29.059h8.559L93.8,14.486,104.97,1.629H96.8L87.2,13.781V1.629Zm32.8,18.36a4.108,4.108,0,1,1-8.212,0,4.108,4.108,0,1,1,8.212,0m.13,9.026h5.822V10.963H120.09v2.466H120a6.311,6.311,0,0,0-5.822-3.038c-4.649,0-8.472,3.3-8.472,9.642s3.823,9.642,8.472,9.642A6.347,6.347,0,0,0,120,26.638h.087Zm20.551-12.724h.521v-5.9h-.13a5.715,5.715,0,0,0-5.909,4.227h-.087v-3.7H129.3v18.1h5.822V22.367c.043-4.623,1.651-6.076,5.518-6.076m2.737,12.724H149.2V1.629h-5.822ZM6,1.629H0V29.015H6V15.895L17.162,29.059h8.559L12.6,14.486,23.766,1.629H15.6L6,13.781Zm32.8,18.36a4.108,4.108,0,1,1-8.212,0,4.108,4.108,0,1,1,8.212,0m.13,9.026h5.822V10.963H38.929v2.466h-.087a6.311,6.311,0,0,0-5.822-3.038c-4.649,0-8.472,3.3-8.472,9.642s3.823,9.642,8.472,9.642a6.347,6.347,0,0,0,5.822-3.038h.087ZM59.48,16.291H60v-5.9h-.13a5.715,5.715,0,0,0-5.909,4.227h-.087v-3.7H48.14v18.1h5.822V22.367c.043-4.623,1.651-6.076,5.518-6.076m2.737,12.724H68.04V1.629H62.218Zm109.619-9.026a35.2,35.2,0,0,0-1.477-8.366,39.808,39.808,0,0,0-8.559-1.233c-5.735,0-9.993,3.831-9.993,9.642a9.461,9.461,0,0,0,2.65,6.78,16.371,16.371,0,0,1,11.774-12.02s-8.125,6.3-6.3,14.706a12.877,12.877,0,0,0,1.868.132c5.779,0,10.036-3.831,10.036-9.642m4.084-17.3a4.924,4.924,0,0,1-.826.044v-.7h.826c.174,0,.261.176.261.352s-.087.308-.261.308m.478.4c-.087,0-.13-.044-.217-.044.043-.044.087-.044.13-.088a.7.7,0,0,0,.565-.7.752.752,0,0,0-.521-.748.945.945,0,0,0-.348-.044h-1.39c-.13,0-.174.044-.174.176V4.491h.652V3.258h.608c.3,0,.391.088.434.44a3.01,3.01,0,0,0,.087.616.2.2,0,0,0,.13.132h.608c-.043-.176-.043-.308-.087-.484,0-.132-.043-.308-.043-.44a.562.562,0,0,0-.434-.44m1.521-.132a2.242,2.242,0,0,1-2.3,2.29,2.279,2.279,0,0,1-2.3-2.334,2.269,2.269,0,0,1,2.3-2.29,2.334,2.334,0,0,1,2.3,2.334m.652,0a2.976,2.976,0,0,0-5.952,0,2.976,2.976,0,0,0,5.952,0"/><path class="a" d="M-127.84-4.768v2.139h-1.13V-8.7h1.979a3.467,3.467,0,0,1,1.055.143,2.03,2.03,0,0,1,.735.4,1.563,1.563,0,0,1,.429.613,2.141,2.141,0,0,1,.139.781,2.159,2.159,0,0,1-.147.809,1.678,1.678,0,0,1-.441.632,2.053,2.053,0,0,1-.735.412,3.274,3.274,0,0,1-1.034.147Zm0-.882h.849a1.7,1.7,0,0,0,.542-.078,1.007,1.007,0,0,0,.382-.223.913.913,0,0,0,.227-.353,1.351,1.351,0,0,0,.076-.464,1.225,1.225,0,0,0-.076-.441.872.872,0,0,0-.227-.336,1.009,1.009,0,0,0-.382-.212,1.793,1.793,0,0,0-.542-.074h-.849Zm9.911-.017a3.367,3.367,0,0,1-.223,1.237,2.931,2.931,0,0,1-.626.985,2.835,2.835,0,0,1-.971.649A3.274,3.274,0,0,1-121-2.562a3.29,3.29,0,0,1-1.258-.233,2.852,2.852,0,0,1-.975-.649,2.915,2.915,0,0,1-.628-.985,3.367,3.367,0,0,1-.223-1.237,3.367,3.367,0,0,1,.223-1.237,2.915,2.915,0,0,1,.628-.985,2.852,2.852,0,0,1,.975-.649A3.29,3.29,0,0,1-121-8.772a3.248,3.248,0,0,1,1.256.235,2.875,2.875,0,0,1,.971.649,2.908,2.908,0,0,1,.626.983A3.367,3.367,0,0,1-117.929-5.667Zm-1.16,0a2.829,2.829,0,0,0-.132-.9,1.9,1.9,0,0,0-.38-.674,1.637,1.637,0,0,0-.6-.424,2.074,2.074,0,0,0-.8-.147,2.09,2.09,0,0,0-.8.147,1.652,1.652,0,0,0-.607.424,1.9,1.9,0,0,0-.384.674,2.788,2.788,0,0,0-.134.9,2.788,2.788,0,0,0,.134.9,1.883,1.883,0,0,0,.384.672,1.664,1.664,0,0,0,.607.422,2.09,2.09,0,0,0,.8.147,2.074,2.074,0,0,0,.8-.147,1.648,1.648,0,0,0,.6-.422,1.876,1.876,0,0,0,.38-.672A2.829,2.829,0,0,0-119.088-5.667ZM-117.6-8.7h.95a.417.417,0,0,1,.246.069.334.334,0,0,1,.132.187l1.034,3.634q.038.134.069.292t.061.334q.034-.176.074-.334t.086-.292l1.193-3.634a.4.4,0,0,1,.132-.176.372.372,0,0,1,.242-.08h.332a.408.408,0,0,1,.244.069.359.359,0,0,1,.134.187l1.185,3.634a4.818,4.818,0,0,1,.16.6q.029-.164.061-.315t.065-.281l1.034-3.634a.339.339,0,0,1,.13-.181.4.4,0,0,1,.244-.076h.887l-1.886,6.075h-1.021l-1.328-4.151q-.025-.08-.053-.172t-.053-.2q-.025.105-.053.2t-.053.172l-1.34,4.151h-1.021Zm13.188,0v.9h-2.693v1.685h2.122v.87h-2.122v1.718h2.693v.9h-3.832V-8.7Zm2.147,3.7v2.374h-1.13V-8.7h1.853a3.87,3.87,0,0,1,1.065.128,2.029,2.029,0,0,1,.727.359,1.387,1.387,0,0,1,.416.552,1.842,1.842,0,0,1,.132.708,1.835,1.835,0,0,1-.09.58,1.678,1.678,0,0,1-.26.5,1.756,1.756,0,0,1-.42.391,2.2,2.2,0,0,1-.569.269,1.12,1.12,0,0,1,.37.349l1.521,2.244h-1.017a.5.5,0,0,1-.25-.059.511.511,0,0,1-.174-.168L-101.37-4.8a.448.448,0,0,0-.158-.155A.552.552,0,0,0-101.782-5Zm0-.811h.706a1.749,1.749,0,0,0,.557-.08,1.076,1.076,0,0,0,.391-.221.886.886,0,0,0,.229-.334,1.155,1.155,0,0,0,.076-.424.863.863,0,0,0-.3-.71,1.457,1.457,0,0,0-.931-.248h-.723ZM-92.026-8.7v.929h-1.828v5.147h-1.13V-7.776H-96.82V-8.7Zm6.218,3.038a3.367,3.367,0,0,1-.223,1.237,2.931,2.931,0,0,1-.626.985,2.835,2.835,0,0,1-.971.649,3.274,3.274,0,0,1-1.256.233A3.29,3.29,0,0,1-90.142-2.8a2.852,2.852,0,0,1-.975-.649,2.915,2.915,0,0,1-.628-.985,3.368,3.368,0,0,1-.223-1.237A3.368,3.368,0,0,1-91.745-6.9a2.915,2.915,0,0,1,.628-.985,2.852,2.852,0,0,1,.975-.649,3.29,3.29,0,0,1,1.258-.233,3.248,3.248,0,0,1,1.256.235,2.875,2.875,0,0,1,.971.649,2.908,2.908,0,0,1,.626.983A3.367,3.367,0,0,1-85.808-5.667Zm-1.16,0a2.829,2.829,0,0,0-.132-.9,1.9,1.9,0,0,0-.38-.674,1.637,1.637,0,0,0-.6-.424,2.074,2.074,0,0,0-.8-.147,2.09,2.09,0,0,0-.8.147,1.652,1.652,0,0,0-.607.424,1.9,1.9,0,0,0-.384.674,2.788,2.788,0,0,0-.134.9,2.788,2.788,0,0,0,.134.9,1.883,1.883,0,0,0,.384.672,1.664,1.664,0,0,0,.607.422,2.09,2.09,0,0,0,.8.147,2.074,2.074,0,0,0,.8-.147,1.648,1.648,0,0,0,.6-.422,1.876,1.876,0,0,0,.38-.672A2.829,2.829,0,0,0-86.968-5.667ZM-79.014-8.7v.929h-1.828v5.147h-1.13V-7.776h-1.836V-8.7Zm5.844,6.075h-1.139V-5.285h-2.849v2.655H-78.3V-8.7h1.139v2.613h2.849V-8.7h1.139ZM-68.112-8.7v.9H-70.8v1.685h2.122v.87H-70.8v1.718h2.693v.9h-3.832V-8.7Zm5.391,5.243a2.828,2.828,0,0,0,.666-.069,2.805,2.805,0,0,0,.54-.191v-1.1h-.76a.237.237,0,0,1-.172-.061.2.2,0,0,1-.063-.149v-.639h2.021v2.458a3.338,3.338,0,0,1-.481.292,3.072,3.072,0,0,1-.534.2,4.087,4.087,0,0,1-.607.12,5.709,5.709,0,0,1-.7.04,3.169,3.169,0,0,1-1.223-.231A2.9,2.9,0,0,1-65-3.436a2.927,2.927,0,0,1-.637-.983,3.325,3.325,0,0,1-.229-1.248,3.432,3.432,0,0,1,.223-1.256,2.834,2.834,0,0,1,.632-.983,2.823,2.823,0,0,1,.994-.639A3.6,3.6,0,0,1-62.7-8.772a3.418,3.418,0,0,1,1.288.221,2.97,2.97,0,0,1,.922.574l-.328.513a.292.292,0,0,1-.256.155.381.381,0,0,1-.206-.067q-.134-.08-.275-.16a1.862,1.862,0,0,0-.311-.139,2.535,2.535,0,0,0-.382-.1,2.815,2.815,0,0,0-.489-.038,2.1,2.1,0,0,0-.813.151,1.72,1.72,0,0,0-.62.433,1.951,1.951,0,0,0-.395.676,2.651,2.651,0,0,0-.139.882,2.758,2.758,0,0,0,.147.935,1.961,1.961,0,0,0,.412.691,1.774,1.774,0,0,0,.63.431A2.093,2.093,0,0,0-62.721-3.461Zm9.113-2.206a3.367,3.367,0,0,1-.223,1.237,2.931,2.931,0,0,1-.626.985,2.835,2.835,0,0,1-.971.649,3.274,3.274,0,0,1-1.256.233A3.29,3.29,0,0,1-57.942-2.8a2.852,2.852,0,0,1-.975-.649,2.915,2.915,0,0,1-.628-.985,3.367,3.367,0,0,1-.223-1.237A3.367,3.367,0,0,1-59.545-6.9a2.915,2.915,0,0,1,.628-.985,2.852,2.852,0,0,1,.975-.649,3.29,3.29,0,0,1,1.258-.233,3.248,3.248,0,0,1,1.256.235,2.875,2.875,0,0,1,.971.649,2.908,2.908,0,0,1,.626.983A3.367,3.367,0,0,1-53.608-5.667Zm-1.16,0a2.829,2.829,0,0,0-.132-.9,1.9,1.9,0,0,0-.38-.674,1.637,1.637,0,0,0-.6-.424,2.074,2.074,0,0,0-.8-.147,2.09,2.09,0,0,0-.8.147,1.653,1.653,0,0,0-.607.424,1.9,1.9,0,0,0-.384.674,2.788,2.788,0,0,0-.134.9,2.788,2.788,0,0,0,.134.9,1.883,1.883,0,0,0,.384.672,1.664,1.664,0,0,0,.607.422,2.09,2.09,0,0,0,.8.147,2.074,2.074,0,0,0,.8-.147,1.648,1.648,0,0,0,.6-.422,1.876,1.876,0,0,0,.38-.672A2.829,2.829,0,0,0-54.768-5.667Zm7.878,0a3.367,3.367,0,0,1-.223,1.237,2.931,2.931,0,0,1-.626.985,2.835,2.835,0,0,1-.971.649,3.274,3.274,0,0,1-1.256.233A3.29,3.29,0,0,1-51.224-2.8a2.852,2.852,0,0,1-.975-.649,2.915,2.915,0,0,1-.628-.985,3.367,3.367,0,0,1-.223-1.237A3.367,3.367,0,0,1-52.827-6.9,2.915,2.915,0,0,1-52.2-7.89a2.852,2.852,0,0,1,.975-.649,3.29,3.29,0,0,1,1.258-.233,3.248,3.248,0,0,1,1.256.235,2.875,2.875,0,0,1,.971.649,2.908,2.908,0,0,1,.626.983A3.367,3.367,0,0,1-46.89-5.667Zm-1.16,0a2.829,2.829,0,0,0-.132-.9,1.9,1.9,0,0,0-.38-.674,1.637,1.637,0,0,0-.6-.424,2.074,2.074,0,0,0-.8-.147,2.09,2.09,0,0,0-.8.147,1.653,1.653,0,0,0-.607.424,1.9,1.9,0,0,0-.384.674,2.788,2.788,0,0,0-.134.9,2.788,2.788,0,0,0,.134.9,1.883,1.883,0,0,0,.384.672,1.664,1.664,0,0,0,.607.422,2.09,2.09,0,0,0,.8.147,2.074,2.074,0,0,0,.8-.147,1.648,1.648,0,0,0,.6-.422,1.876,1.876,0,0,0,.38-.672A2.829,2.829,0,0,0-48.049-5.667Zm7.445,0a3.285,3.285,0,0,1-.223,1.227,2.818,2.818,0,0,1-.626.962,2.8,2.8,0,0,1-.971.626,3.41,3.41,0,0,1-1.256.223H-46V-8.7h2.319a3.382,3.382,0,0,1,1.256.225,2.841,2.841,0,0,1,.971.626,2.8,2.8,0,0,1,.626.96A3.285,3.285,0,0,1-40.6-5.667Zm-1.155,0a2.788,2.788,0,0,0-.134-.9,1.9,1.9,0,0,0-.382-.672,1.648,1.648,0,0,0-.6-.422,2.074,2.074,0,0,0-.8-.147H-44.86v4.277h1.181a2.074,2.074,0,0,0,.8-.147,1.648,1.648,0,0,0,.6-.422,1.9,1.9,0,0,0,.382-.672A2.788,2.788,0,0,0-41.76-5.667ZM-40.243-3.2a.646.646,0,0,1,.048-.248.592.592,0,0,1,.134-.2.662.662,0,0,1,.2-.134.633.633,0,0,1,.252-.05.623.623,0,0,1,.248.05.636.636,0,0,1,.2.134.636.636,0,0,1,.134.2.623.623,0,0,1,.05.248.618.618,0,0,1-.05.25.642.642,0,0,1-.134.2.608.608,0,0,1-.2.132.646.646,0,0,1-.248.048.657.657,0,0,1-.252-.048.632.632,0,0,1-.2-.132.6.6,0,0,1-.134-.2A.641.641,0,0,1-40.243-3.2Z" transform="translate(209.785 42.821)"/></svg>