<svg xmlns="http://www.w3.org/2000/svg" width="62.82" height="50.001" viewBox="0 0 62.82 50.001"><path d="M41.359,21.35a17.424,17.424,0,0,0-1.22-3.789,30.923,30.923,0,0,0-1.531-2.889,2.843,2.843,0,0,0-1.129-1.244,4.059,4.059,0,0,0-1.571-.34,6.435,6.435,0,0,0-1.792.16,5.689,5.689,0,0,0-1.109.266,14.815,14.815,0,0,0-2.132,1.211A11.718,11.718,0,0,0,26.6,19.811c-.221.528-.434,1.056-.655,1.58a19.686,19.686,0,0,0-1.8-2.079,12.914,12.914,0,0,0-1.977-1.555,13.1,13.1,0,0,0-5.214-1.563q1.387-2.462,2.766-4.927c.106-.192.213-.381.319-.573.352.131.7.258,1.044.4a3.194,3.194,0,0,0,1.723.331,6.682,6.682,0,0,0,1.486-.417c.6-.213,1.191-.446,1.78-.688.516-.213,1.039-.417,1.539-.671a9.623,9.623,0,0,0,1.526-1,6.674,6.674,0,0,0,1.977-2.1,9.548,9.548,0,0,0,.9-2.091A8.486,8.486,0,0,0,31.9.692a12.94,12.94,0,0,0-.536-1.866,12.272,12.272,0,0,0-.532-1.367,7.606,7.606,0,0,0-2.267-2.574A7.145,7.145,0,0,0,25.231-6.6c-.282-.041-.565-.061-.847-.106s-.528-.135-.794-.18a2.434,2.434,0,0,0-1.039.123,10.143,10.143,0,0,0-2.6,1.367c-1.072.712-2.1,1.486-3.131,2.263C15.188-1.9,13.633-.577,12.041.708c-.475.381-.888.806-1.322,1.228-.7.675-1.4,1.342-2.1,2.009-.737.7-1.457,1.412-2.206,2.091C5.469,6.892,4.45,7.657,3.46,8.459c-.876.712-1.682,1.51-2.513,2.275-.683.634-1.4,1.24-2.079,1.878-1.948,1.809-3.892,3.622-5.746,5.529-.647.659-1.252,1.359-1.907,2.009a17.566,17.566,0,0,0-1.408,1.514A23.571,23.571,0,0,0-12.14,24.4a9.261,9.261,0,0,0-1.17,3.4,6.166,6.166,0,0,0,.3,3.008,15.75,15.75,0,0,0,1.727,3.339,24.546,24.546,0,0,0,2.132,2.771,12.286,12.286,0,0,0,1.559,1.31A19.454,19.454,0,0,0-4.88,40.261c.331.172.6.254.913.405.348.168.692.34,1.031.507a8.41,8.41,0,0,0,1.968.7c.708.164,1.428.307,2.144.417,1.211.192,2.435.376,3.654.479,1.993.164,4.015.319,6.012.315,1.248,0,2.5.008,3.744.016,1.125,0,2.255-.09,3.38-.156,1.248-.07,2.492-.09,3.74-.16,1.375-.074,2.742-.2,4.117-.282,1.318-.074,2.631-.147,3.941-.348a24.43,24.43,0,0,0,3.835-.99c.757-.246,1.514-.479,2.263-.753A8.322,8.322,0,0,0,40.156,37.7a11.314,11.314,0,0,0,1.093-2.893,14.751,14.751,0,0,0,.536-2.14,28.629,28.629,0,0,0,.344-3.45,23.539,23.539,0,0,0-.164-4.158c-.156-1.244-.393-2.476-.606-3.712M19.706,3.79a1.431,1.431,0,0,0-1.813-.258c-.143.078-.282.172-.426.25a2.01,2.01,0,0,0-.45.25c-.27.258-.233.663-.274,1a18.685,18.685,0,0,1-1.387,5.054c-.36.827-.753,1.637-1.191,2.423a6.192,6.192,0,0,1-.769,1.113c-.548.63-1.113,1.244-1.678,1.858-.655.708-1.31,1.424-2.009,2.087-.552.52-1.179.97-1.756,1.5-.376.344-.724.724-1.117,1.044a8.89,8.89,0,0,1-2.067,1.15c-.368.16-.741.311-1.1.5s-.712.413-1.08.593a23.6,23.6,0,0,1-2.447.769c-.2.07-.385.16-.581.233a1.869,1.869,0,0,1-.5.07,3.353,3.353,0,0,0-1.1.368A3.955,3.955,0,0,0-3,24.378a.8.8,0,0,0-.106.839,2.482,2.482,0,0,0,.331.8c.18.258.479.385.647.622a2.064,2.064,0,0,0,1.563.79,1.571,1.571,0,0,0,.917-.135c.34-.168.585-.54.949-.655.348-.115.753.045,1.121-.029a2.329,2.329,0,0,0,.974-.5c.291-.229.516-.528.814-.749a6.979,6.979,0,0,1,1.146-.61c.818-.405,1.625-.847,2.427-1.277,1.514-.814,3.024-1.621,4.547-2.41a10.637,10.637,0,0,1,3.642-1.457,3.283,3.283,0,0,1,1.113.061,4.684,4.684,0,0,1,.933.4c.659.319,1.359.589,1.985.966a5.943,5.943,0,0,1,1.6,1.633c.512.679,1.068,1.334,1.526,2.05.376.585.426,1.285.765,1.882a1.8,1.8,0,0,0,1.649.917,9.524,9.524,0,0,0,1.068-.176,1.713,1.713,0,0,0,.933-.442,5.643,5.643,0,0,0,.994-2.018c.315-.8.683-1.58,1.068-2.349a8.672,8.672,0,0,1,1.207-1.944c.25-.282.552-.512.81-.79.282-.3.532-.626.839-.9a8.219,8.219,0,0,1,1.952-1.326c.352-.168.712-.323,1.052-.52a1.939,1.939,0,0,1,.536.782c.241.471.471.941.679,1.424a24.443,24.443,0,0,1,1.089,3.1,21.5,21.5,0,0,1,.937,6c-.008.818-.143,1.625-.164,2.443a8.345,8.345,0,0,1-.074,1.318c-.09.467-.188.933-.3,1.4a3.5,3.5,0,0,1-.516,1.31,3.587,3.587,0,0,1-1.117.925,18.247,18.247,0,0,1-2.922,1.33c-.9.331-1.8.671-2.73.921a15.091,15.091,0,0,1-3.343.43c-2.23.1-4.448.381-6.675.52-1.952.119-3.916.229-5.868.237-.831,0-1.657-.016-2.488-.008-.79,0-1.576.057-2.365.078-.7.02-1.391.025-2.087.016A20.386,20.386,0,0,1,5.94,39.1c-1.1-.127-2.218-.086-3.319-.225A25.149,25.149,0,0,1-.522,38.2a9.2,9.2,0,0,1-2.754-.986,7.992,7.992,0,0,1-1.359-1.064c-.557-.561-1.232-1-1.821-1.518a15.086,15.086,0,0,1-2.075-2.374,7.088,7.088,0,0,1-1.4-2.787A4.648,4.648,0,0,1-9.488,26.5a19.765,19.765,0,0,1,3.327-4.4,59.416,59.416,0,0,1,4.69-4.78C.2,15.83,1.9,14.377,3.582,12.891,6.635,10.2,9.729,7.563,12.721,4.8c1.535-1.416,3.1-2.807,4.7-4.15.434-.36.876-.716,1.334-1.044a7.171,7.171,0,0,1,1.1-.626c.667-.323,1.318-.683,1.981-1.007.389-.188.778-.372,1.166-.561a3.6,3.6,0,0,1,1.371-.544,2.865,2.865,0,0,1,1.416.536c.237.143.3.352.438.6.2.34.4.675.6,1.015a10.441,10.441,0,0,1,.966,2.067,11.308,11.308,0,0,1,.393,2.279A4.147,4.147,0,0,1,28.218,4.4a1.692,1.692,0,0,1-.5.884,5.968,5.968,0,0,1-1.661,1.183c-1.117.577-2.668,1.232-3.859.475A2.252,2.252,0,0,1,21.306,6c-.127-.331-.09-.7-.188-1.044A1.536,1.536,0,0,0,19.706,3.79" transform="translate(13.375 6.904)"/><path d="M5.387.974A1.871,1.871,0,0,0,4.306-.139c-.27-.123-.54.049-.814.119a5.112,5.112,0,0,1-1.22.184A4.06,4.06,0,0,1,.366-.283a.247.247,0,0,0-.295.037A4.606,4.606,0,0,0-1.648,2.23a3.99,3.99,0,0,0-.094.728.357.357,0,0,0,.2.319c.27.2.536.393.806.589a.2.2,0,0,0,.221.02Q1.274,3.642,3.066,3.4a2.825,2.825,0,0,0,1.952-.79A1.948,1.948,0,0,0,5.387.974" transform="translate(57.377 21.049)"/><path d="M.317,3.559h0v0c.2.241.291.54.544.741a1.4,1.4,0,0,0,.855.266,1.859,1.859,0,0,0,1.514-.606,1.977,1.977,0,0,0,.364-1c.106-.765.217-1.526.323-2.288.037-.233.07-.462.1-.7A.264.264,0,0,0,3.914-.3a3.388,3.388,0,0,0-1.248-.823,5.185,5.185,0,0,0-1.506.1.255.255,0,0,0-.233.18A12.09,12.09,0,0,0,.595,1.1a2.43,2.43,0,0,1-.156,1.08,2.265,2.265,0,0,1-.471.593.247.247,0,0,0-.037.295c.127.164.25.327.385.487" transform="translate(46.743 12.866)"/><path d="M.415,3.443c.348,0,.7.02,1.044.025a2.05,2.05,0,0,0,1.293-.4,3.51,3.51,0,0,0,.937-1.125,2.172,2.172,0,0,0-.319-2.73A1.434,1.434,0,0,0,2.629-1.1a1.047,1.047,0,0,0-.72.135c-.131.11-.246.258-.364.381C1.119-.146.7.3.271.734.235.775.19.812.153.857A1.775,1.775,0,0,0-.109,1.7,2.59,2.59,0,0,0,.206,3.324a.239.239,0,0,0,.209.119" transform="translate(52.473 16.581)"/></svg>