<svg xmlns="http://www.w3.org/2000/svg" width="64.876" height="49.999" viewBox="0 0 64.876 49.999"><path d="M21.571,29.853a22.991,22.991,0,0,0,2.616.3,20.977,20.977,0,0,0,2.554-.1,3.4,3.4,0,0,0,.707-.075l.478-.141c.362-.1.72-.2,1.082-.291.745-.187,1.493-.349,2.242-.507,1.481-.312,2.966-.607,4.422-1.011A18.6,18.6,0,0,0,40,26.3a33.816,33.816,0,0,0,4.035-2.833,36.9,36.9,0,0,0,3.686-3.149,24.183,24.183,0,0,0,2.933-3.636,34.849,34.849,0,0,0,3.8-8.54c.524-1.635,1.027-3.282,1.572-4.913.524-1.577,1.065-3.149,1.522-4.75a8.189,8.189,0,0,0,.433-3.606c-.058-.329-.233-.337-.541-.416-.5-.129-1.011-.22-1.522-.316a36.356,36.356,0,0,1-3.569-.828c-1.631-.5-3.245-1.007-4.908-1.389-1.693-.387-3.4-.807-5.108-1.111a18.921,18.921,0,0,0-5.037-.171,43.062,43.062,0,0,0-5.1.832,40.7,40.7,0,0,0-4.609,1.186,25,25,0,0,0-7.77,4.376,25.486,25.486,0,0,0-5.666,6.21c-.807,1.3-1.348,2.708-2.026,4.072-.736,1.473-1.589,2.887-2.4,4.318a15.021,15.021,0,0,0-1.73,4.272c-.262,1.231-.487,2.775.27,3.881a3.353,3.353,0,0,0,1.4,1.086c.453.212.953.541,1.007,1.086a1.659,1.659,0,0,1-.79,1.331c-.653.537-1.314,1.065-1.976,1.589-2.679,2.134-5.428,4.2-7.991,6.477-1.244,1.1-2.442,2.263-3.648,3.411-.611.578-1.177,1.2-1.755,1.809-.453.483-1.194,1.023-1.314,1.714a2.288,2.288,0,0,0,.79,1.747,1.522,1.522,0,0,0,1.918.279,1.924,1.924,0,0,0,.757-.832,6.962,6.962,0,0,1,.32-.849,6.154,6.154,0,0,1,1.077-1.431c.428-.445.89-.857,1.3-1.314C-.114,35.3.381,34.682.934,34.1a21.662,21.662,0,0,1,3.49-3.066c1.385-.94,2.829-1.8,4.255-2.683,1.481-.915,2.97-1.822,4.451-2.737a.142.142,0,0,1,.175.012l.012.012a20.085,20.085,0,0,0,3.569,2.912,14.769,14.769,0,0,0,4.684,1.3M27.111,26.3a11.264,11.264,0,0,1-4-.358,9.668,9.668,0,0,1-3.619-2.076.132.132,0,0,1-.029-.171.118.118,0,0,1,.137-.1,24.051,24.051,0,0,1,4.946.915,5.846,5.846,0,0,1,2.671,1.522.155.155,0,0,1-.108.262m12.779-5.27a9.671,9.671,0,0,1-3.082,2.346c-.5.258-1.019.483-1.539.707a2.669,2.669,0,0,1-.7.258c-.245.029-.483-.146-.707-.22a8.121,8.121,0,0,0-1.868-.287,9.738,9.738,0,0,1-1.805-.3c-1.306-.349-2.575-.811-3.839-1.281-.57-.212-1.161-.4-1.714-.653-.532-.25-1.027-.566-1.543-.84a.127.127,0,0,1-.075-.116.134.134,0,0,1,.075-.15c.47-.25.957-.478,1.418-.749a8.337,8.337,0,0,1,1.468-.732,3.885,3.885,0,0,1,1.427-.225,9.044,9.044,0,0,1,1.618.345c1.206.275,2.458.4,3.686.566q3.563.505,7.113,1.073c.125.021.133.183.067.258m7.126-6.21c-.736.874-1.468,1.751-2.2,2.625-.092.108-.2.312-.341.366a1.063,1.063,0,0,1-.345.008c-.137,0-.275,0-.416,0-.553.008-1.106.025-1.664.033-1.011.017-2.022.008-3.032-.075-2.28-.183-4.551-.524-6.818-.815a.2.2,0,0,1-.029-.012.141.141,0,0,1-.121-.183c0-.012.008-.021.012-.033h0a2.41,2.41,0,0,1,.778-1.194,4.684,4.684,0,0,1,1.073-.578,10.412,10.412,0,0,0,1.181-.72c.562-.354,1.148-.67,1.735-.978.449-.237.965-.653,1.493-.578a11.772,11.772,0,0,1,1.676.462,15.358,15.358,0,0,0,3.76.757,6.651,6.651,0,0,1,1.522.137c.562.154,1.106.362,1.668.516a.157.157,0,0,1,.071.258M52.881,2.71c-.021.287,0,.574-.033.861a2.718,2.718,0,0,1-.262.79c-.258.62-.532,1.235-.8,1.851-.258.595-.52,1.186-.765,1.785A8.607,8.607,0,0,1,50.452,9.2a3.281,3.281,0,0,1-1.581,1.439,4.286,4.286,0,0,1-1.252.2,6.5,6.5,0,0,0-.874.245,4.7,4.7,0,0,1-.761.1,10.84,10.84,0,0,1-3.423-.6.154.154,0,0,1-.058-.029.146.146,0,0,1-.062-.129.14.14,0,0,1,.054-.112s.008-.012.017-.017h0a62.905,62.905,0,0,0,10.1-7.7.157.157,0,0,1,.266.108M13.667,19.686a2.08,2.08,0,0,1-1.044-1.364,8.03,8.03,0,0,1-.079-2.621,14.834,14.834,0,0,1,.512-2.629,18.335,18.335,0,0,1,1.822-4.318,18.2,18.2,0,0,1,3.012-3.735,43.116,43.116,0,0,1,4.072-3.411A17.505,17.505,0,0,1,26.254-1c.778-.291,1.593-.449,2.388-.678.849-.241,1.689-.516,2.542-.753A15.4,15.4,0,0,1,33.7-2.947C34.154-3,34.6-2.988,35.048-3A14.441,14.441,0,0,0,36.5-3.217a48.085,48.085,0,0,1,5.661-.72c.89-.025,1.78.021,2.666-.037.732-.042,1.435-.254,2.163-.3a13.39,13.39,0,0,1,3.656.428c.661.154,1.323.324,1.968.537h0a.087.087,0,0,1,.025.017.143.143,0,0,1,.079.121.136.136,0,0,1-.021.087c0,.008-.008.021-.012.029s0,0,0,0c-.6.682-1.186,1.377-1.772,2.067a38.121,38.121,0,0,1-3.6,3.864,29.435,29.435,0,0,1-4.131,2.983c-.72.441-1.448.869-2.18,1.294A16.75,16.75,0,0,1,38.8,8.38c-.416.162-.853.162-1.277.3a2.786,2.786,0,0,0-.9.491c-.616.483-1.14,1.073-1.764,1.547a23.557,23.557,0,0,1-4.534,2.2,13.117,13.117,0,0,0-2.138,1.194,19.317,19.317,0,0,1-2.167,1.431c-1.66.869-3.407,1.618-5.137,2.342a38.874,38.874,0,0,1-5.383,1.789,2.507,2.507,0,0,1-1.839.012" transform="translate(6.827 9.448)"/></svg>